<svg xmlns="http://www.w3.org/2000/svg" viewBox="0 0 24 24" fill="#EAB308" stroke="#A16207" stroke-width="1.5" stroke-linecap="round" stroke-linejoin="round">
  <path d="M12 22c1.1 0 2-.9 2-2 0-1.1-.9-2-2-2s-2 .9-2 2 .9 2 2 2z"/>
  <path d="M12 2v2"/>
  <path d="M12 20c-3-3-6-5-6-9 0-3.5 2.5-6 6-6s6 2.5 6 6c0 4-3 6-6 9z" style="display:none"/> 
  <path d="M4.5 10.5C2.5 9.5 2 7 3 5s4-1 6 2c2 3 2 6 2 6s1.5-1 2.5-2.5S16 7 16 7s2.5 1.5 3.5 4S18 15 16 16c-2 1-5 0-6-2"/>
  <path d="M12 14c-2 2-5 3-7 1S3 10 5 9"/>
  <path d="M12 14c2 2 5 3 7 1s2-5 0-6"/>
  <path d="M12 8c0-3-2-5-5-5S2 5 2 8c0 3 3 5 6 6"/>
  <path d="M12 8c0-3 2-5 5-5s5 2 5 5c0 3-3 5-6 6"/>
</svg>
